#!OML:ASF I:\Actors\actors\Patient Classification 2\Patient 1\Session 1\actor1.ASF
:FULLY-SPECIFIED
:DEGREES
751
root -0.65729 18.684 5.34365 -1.61639 -0.925745 -1.04641
lowerback 6.98191 -0.18584 -0.734933
upperback -2.3479 -0.283311 0.576671
thorax -6.36549 -0.0974764 1.05028
lowerneck -10.4149 -1.00692 -1.74732
upperneck 25.2104 -1.8376 2.9631
head 9.72313 -0.696833 1.11992
rclavicle 6.47914e-015 -1.73937e-015
rhumerus -49.3887 2.56081 -87.4988
rradius 46.3101
rwrist 11.1617
rhand -12.6522 -30.2719
rfingers 7.12502
rthumb 13.4284 -59.8191
lclavicle 6.47914e-015 -1.73937e-015
lhumerus -40.1745 1.47893 87.7743
lradius 43.6686
lwrist -0.101152
lhand -7.07533 -24.0388
lfingers 7.12502
lthumb 18.7984 5.07288
rfemur 9.00123 8.52148 16.0187
rtibia 1.11319e-014
rfoot -20.9437 -15.9509
rtoes -1.62697
lfemur -2.47846 -5.52603 -13.3417
ltibia 20.5482
lfoot -20.6155 11.9858
ltoes -55.018
752
root -0.65852 18.6851 5.33611 -1.63139 -1.00973 -1.0155
lowerback 6.98522 -0.168985 -0.81575
upperback -2.32729 -0.267463 0.593573
thorax -6.34565 -0.0862866 1.11133
lowerneck -10.3968 -0.981498 -1.74036
upperneck 25.169 -1.78962 2.91456
head 9.70302 -0.67963 1.10703
rclavicle 3.34983e-015 -4.84538e-015
rhumerus -48.9557 2.60718 -87.3467
rradius 46.4551
rwrist 11.1033
rhand -12.6263 -30.1089
rfingers 7.12502
rthumb 13.4534 -59.6544
lclavicle 3.34983e-015 -4.84538e-015
lhumerus -39.9579 1.06854 88.0686
lradius 43.9691
lwrist 0.168546
lhand -7.20704 -24.3371
lfingers 7.12502
lthumb 18.6717 4.78674
rfemur 8.96969 8.60784 15.9907
rtibia 1.43125e-014
rfoot -20.934 -15.9761
rtoes -1.46919
lfemur -2.46429 -5.47726 -13.3781
ltibia 20.5327
lfoot -20.5641 12.0919
ltoes -55.1586
753
root -0.659887 18.6854 5.33021 -1.6485 -1.07061 -1.02555
lowerback 6.9927 -0.170797 -0.846784
upperback -2.32291 -0.271135 0.62248
thorax -6.34501 -0.0862538 1.15947
lowerneck -10.3746 -0.942544 -1.72446
upperneck 25.1502 -1.72341 2.85916
head 9.68958 -0.653807 1.09245
rclavicle -1.46223e-014 1.62258e-014
rhumerus -48.5682 2.67239 -87.2023
rradius 46.5731
rwrist 11.0541
rhand -12.2724 -30.431
rfingers 7.12502
rthumb 13.7945 -59.9537
lclavicle -1.46223e-014 1.62258e-014
lhumerus -39.8298 0.719894 88.3212
lradius 44.2379
lwrist 0.2606
lhand -7.12787 -24.6399
lfingers 7.12502
lthumb 18.7478 4.47669
rfemur 8.95704 8.66954 16.0101
rtibia -1.59028e-014
rfoot -20.9345 -15.998
rtoes -1.41453
lfemur -2.45118 -5.46647 -13.3643
ltibia 20.5244
lfoot -20.5712 12.1187
ltoes -55.1343
754
root -0.660456 18.6852 5.32626 -1.6775 -1.09732 -1.05646
lowerback 6.97891 -0.195787 -0.83915
upperback -2.29842 -0.301698 0.656186
thorax -6.31031 -0.101224 1.1939
lowerneck -10.4515 -0.900087 -1.77619
upperneck 25.2076 -1.65525 2.86693
head 9.72341 -0.625337 1.11198
rclavicle -8.80243e-015 1.35174e-014
rhumerus -48.211 2.81293 -87.1012
rradius 46.6794
rwrist 10.9371
rhand -12.0457 -30.7555
rfingers 7.12502
rthumb 14.0129 -60.2632
lclavicle -8.80243e-015 1.35174e-014
lhumerus -39.7451 0.381805 88.5859
lradius 44.432
lwrist 0.619335
lhand -7.10085 -25.0894
lfingers 7.12502
lthumb 18.7738 4.02467
rfemur 8.97523 8.69702 16.0531
rtibia 3.18055e-015
rfoot -20.9581 -15.974
rtoes -1.24008
lfemur -2.41428 -5.60323 -13.3472
ltibia 20.5148
lfoot -20.6398 12.2202
ltoes -54.9977
755
root -0.66124 18.6854 5.32349 -1.68832 -1.13725 -1.06364
lowerback 6.93402 -0.211269 -0.863508
upperback -2.26936 -0.323199 0.676653
thorax -6.25312 -0.11095 1.23108
lowerneck -10.5568 -0.865077 -1.78401
upperneck 25.2923 -1.59338 2.82161
head 9.7719 -0.60123 1.10496
rclavicle 8.15405e-015 -5.57218e-015
rhumerus -47.8824 2.90816 -87.017
rradius 46.7379
rwrist 10.9774
rhand -12.1369 -30.9633
rfingers 7.12502
rthumb 13.9251 -60.477
lclavicle 8.15405e-015 -5.57218e-015
lhumerus -39.6928 0.00188114 88.8813
lradius 44.5095
lwrist 1.29648
lhand -7.25759 -25.8724
lfingers 7.12502
lthumb 18.6231 3.25612
rfemur 8.97121 8.73742 16.0654
rtibia -2.22639e-014
rfoot -20.9627 -15.9464
rtoes -1.06898
lfemur -2.38649 -5.67923 -13.3514
ltibia 20.4984
lfoot -20.6966 12.3096
ltoes -54.9536
756
root -0.66267 18.6855 5.32195 -1.67762 -1.17899 -1.04577
lowerback 6.87053 -0.217735 -0.928561
upperback -2.2611 -0.337082 0.684092
thorax -6.20732 -0.115467 1.27656
lowerneck -10.5398 -0.831205 -1.70417
upperneck 25.2923 -1.5353 2.71578
head 9.76564 -0.578681 1.06103
rclavicle -1.21251e-015 -1.94436e-015
rhumerus -47.5818 2.91478 -86.9374
rradius 46.736
rwrist 11.0427
rhand -12.2385 -31.2081
rfingers 7.12502
rthumb 13.8272 -60.7285
lclavicle -1.21251e-015 -1.94436e-015
lhumerus -39.685 -0.331023 89.1503
lradius 44.5797
lwrist 1.67314
lhand -7.40743 -26.4097
lfingers 7.12502
lthumb 18.4789 2.73258
rfemur 8.94343 8.77905 16.0464
rtibia 1.59028e-015
rfoot -20.9563 -15.9485
rtoes -0.909139
lfemur -2.38471 -5.67998 -13.369
ltibia 20.483
lfoot -20.7352 12.3228
ltoes -54.9689
757
root -0.664137 18.6851 5.32112 -1.6654 -1.19786 -1.02277
lowerback 6.80967 -0.217228 -0.974201
upperback -2.26308 -0.340608 0.67734
thorax -6.17429 -0.115817 1.29512
lowerneck -10.4335 -0.798387 -1.64352
upperneck 25.2101 -1.49302 2.68557
head 9.71406 -0.557815 1.04457
rclavicle 4.84887e-015 -1.6524e-015
rhumerus -47.3484 2.89034 -86.858
rradius 46.7094
rwrist 11.0488
rhand -12.2876 -31.1581
rfingers 7.12502
rthumb 13.7798 -60.6818
lclavicle 4.84887e-015 -1.6524e-015
lhumerus -39.7513 -0.70099 89.4229
lradius 44.7207
lwrist 1.80379
lhand -7.43454 -26.5614
lfingers 7.12502
lthumb 18.4529 2.58339
rfemur 8.92564 8.79768 16.0224
rtibia 2.38542e-014
rfoot -20.9821 -15.912
rtoes -0.580154
lfemur -2.38553 -5.73171 -13.3916
ltibia 20.4663
lfoot -20.7866 12.331
ltoes -54.8836
758
root -0.665712 18.6854 5.32001 -1.64722 -1.19883 -1.01445
lowerback 6.74902 -0.201588 -0.982232
upperback -2.25565 -0.320444 0.669477
thorax -6.13232 -0.106097 1.28848
lowerneck -10.3956 -0.796081 -1.66739
upperneck 25.142 -1.49713 2.73963
head 9.68318 -0.556465 1.06662
rclavicle -2.234e-015 1.92573e-015
rhumerus -47.1622 2.86479 -86.7728
rradius 46.6861
rwrist 11.072
rhand -12.3925 -31.1131
rfingers 7.12502
rthumb 13.6787 -60.6436
lclavicle -2.234e-015 1.92573e-015
lhumerus -39.8546 -1.17764 89.7498
lradius 44.8697
lwrist 1.98926
lhand -7.40574 -26.5894
lfingers 7.12502
lthumb 18.4806 2.55274
rfemur 8.9084 8.79732 16.0155
rtibia 1.59028e-014
rfoot -20.988 -15.8842
rtoes -0.459912
lfemur -2.3967 -5.76247 -13.394
ltibia 20.4399
lfoot -20.7846 12.3437
ltoes -54.845
759
root -0.66762 18.6867 5.31862 -1.61174 -1.18657 -0.984395
lowerback 6.69953 -0.186485 -1.00938
upperback -2.26218 -0.303277 0.653755
thorax -6.11134 -0.0970485 1.28496
lowerneck -10.4229 -0.807528 -1.73231
upperneck 25.1375 -1.52082 2.82445
head 9.68851 -0.563926 1.10451
rclavicle -1.21181e-014 8.3738e-015
rhumerus -47.0348 2.83295 -86.7122
rradius 46.6636
rwrist 11.1653
rhand -12.4548 -31.2431
rfingers 7.12502
rthumb 13.6187 -60.7776
lclavicle -1.21181e-014 8.3738e-015
lhumerus -39.9842 -1.60744 90.0497
lradius 44.9641
lwrist 2.09286
lhand -7.39355 -26.5533
lfingers 7.12502
lthumb 18.4923 2.58768
rfemur 8.86648 8.78344 15.9811
rtibia -2.54444e-014
rfoot -20.9826 -15.891
rtoes -0.4623
lfemur -2.43365 -5.72398 -13.4178
ltibia 20.4152
lfoot -20.7075 12.3813
ltoes -54.9645
760
root -0.670073 18.6877 5.31753 -1.56952 -1.17205 -0.947425
lowerback 6.66116 -0.185818 -1.0587
upperback -2.29376 -0.307198 0.643365
thorax -6.12241 -0.0970498 1.30223
lowerneck -10.4183 -0.797204 -1.73205
upperneck 25.1716 -1.50645 2.82202
head 9.69937 -0.557357 1.10553
rclavicle -3.36692e-015 -1.32813e-014
rhumerus -46.9895 2.84338 -86.6711
rradius 46.6121
rwrist 11.341
rhand -12.3264 -31.256
rfingers 7.12502
rthumb 13.7424 -60.7821
lclavicle -3.36692e-015 -1.32813e-014
lhumerus -40.1725 -1.85932 90.2806
lradius 44.9818
lwrist 2.07702
lhand -7.27575 -26.5482
lfingers 7.12502
lthumb 18.6056 2.58203
rfemur 8.81446 8.76697 15.9396
rtibia 6.36111e-015
rfoot -20.9745 -15.8908
rtoes -0.477259
lfemur -2.47532 -5.71486 -13.4464
ltibia 20.3959
lfoot -20.6828 12.4249
ltoes -55.0129
